<svg xmlns="http://www.w3.org/2000/svg" xmlns:xlink="http://www.w3.org/1999/xlink" width="250" zoomAndPan="magnify" viewBox="0 0 187.5 74.999997" height="100" preserveAspectRatio="xMidYMid meet" version="1.0"><defs><g/></defs><g fill="#ff1616" fill-opacity="1"><g transform="translate(40.261544, 59.623148)"><g><path d="M 0 0 C 7.285156 0 14.566406 0 21.851562 0 C 37.082031 0 50.765625 -9.492188 50.765625 -27.589844 C 50.765625 -45.691406 37.082031 -55.179688 21.851562 -55.179688 C 14.566406 -55.179688 7.285156 -55.179688 0 -55.179688 C 1.03125 -52.386719 1.324219 -49.148438 1.324219 -45.394531 C 1.324219 -39.363281 1.324219 -15.820312 1.324219 -9.785156 C 1.324219 -6.03125 1.03125 -2.796875 0 0 Z M 9.785156 -52.3125 L 21.851562 -52.3125 C 32.300781 -52.3125 42.085938 -42.820312 42.085938 -27.589844 C 42.085938 -12.359375 32.300781 -2.871094 21.851562 -2.871094 L 9.785156 -2.871094 Z M 9.785156 -52.3125 "/></g></g></g><g fill="#000000" fill-opacity="1"><g transform="translate(97.273258, 59.623148)"><g><path d="M 9.785156 -9.785156 L 9.785156 -15.449219 L 18.835938 -26.929688 L 29.652344 -6.546875 C 30.828125 -4.414062 31.636719 -2.355469 32.152344 0 L 43.851562 0 C 42.011719 -2.355469 39.363281 -6.546875 37.597656 -9.785156 L 24.574219 -34.210938 L 33.328125 -45.46875 C 35.90625 -48.707031 39.066406 -52.386719 42.011719 -55.179688 L 32.371094 -55.179688 C 32.519531 -51.503906 31.785156 -48.117188 28.914062 -44.4375 L 9.785156 -20.160156 L 9.785156 -45.394531 C 9.785156 -49.148438 10.078125 -52.386719 11.109375 -55.179688 L 0 -55.179688 C 1.03125 -52.386719 1.324219 -49.148438 1.324219 -45.394531 C 1.324219 -39.363281 1.324219 -15.820312 1.324219 -9.785156 C 1.324219 -6.03125 1.03125 -2.796875 0 0 L 11.109375 0 C 10.078125 -2.796875 9.785156 -6.03125 9.785156 -9.785156 Z M 9.785156 -9.785156 "/></g></g></g></svg>